<?xml version="1.0" encoding="utf-8"?>
<!-- Generator: Adobe Illustrator 21.0.0, SVG Export Plug-In . SVG Version: 6.00 Build 0)  -->
<svg version="1.1" id="Camada_1" xmlns="http://www.w3.org/2000/svg" xmlns:xlink="http://www.w3.org/1999/xlink" x="0px" y="0px"
	 viewBox="0 0 1009.6 331.6" style="enable-background:new 0 0 1009.6 331.6;" xml:space="preserve">
<style type="text/css">
	.st0{fill:#BE5082;}
	.st1{fill:#F495C0;}
	.st2{fill:#464646;}
</style>
<path class="st0" d="M171.6,209.6c-0.7-1.1-1.8-2.5-3-3c-6.3-2.5-11.2-6.9-15.8-11.7c-9.7-10.2-17.2-22-25.2-33.4
	c-5.4-7.7-11.6-14.5-19.5-19.7c-10.5-6.9-21.7-8.1-33.6-4.7c-7.2,2.1-13.5,5.6-17.8,12c-3.7,5.6-5.1,11.8-4,18.4
	c1.2,7.1,6,11.4,12.6,13.8c1.3,0.5,1.7,0.9,1.2,2.3c-0.9,3-0.2,6,0.7,9c1,3.6,2.6,7,4.4,10.7c-2.9-0.6-5.4-1.6-7.8-2.8
	c-9.8-4.6-18.1-11-23.5-20.7c-9.5-17.1-4.2-37.5,12.2-48.1c13-8.4,26.9-9.5,41.5-5.9c8.3,2,16.2,5.2,24.4,7.6
	c7.1,2.1,14.3,3.8,21.7,3.4c10.6-0.6,20.3-3.8,29.9-8.1c9.5-4.3,15.3-12.3,21.5-19.9c5.7-7.1,11.1-14.5,16.9-21.5
	c5.4-6.6,12.4-10,20.7-11.2c9.6-1.4,19.2-0.8,28.4,2.5c9.2,3.3,16,9.5,20.2,18.4c3.6,7.7,3.6,15.6,1.4,23.6
	c-2.4,8.4-6.7,15.8-12.3,22.9c-0.5-1.4-0.8-2.7-0.9-3.9c-0.4-6.4-3.8-11.4-7.4-16.3c-0.6-0.8-0.7-1.3,0-2.1c1.2-1.4,2.3-2.9,3.2-4.6
	c3.5-6.5,2.3-14.5-3.2-19.2c-7.4-6.3-16-9.2-25.9-7.4c-10.9,2.1-20.2,7.2-27.7,15.6c-3.6,4.1-5.2,8.7-5.4,14.1
	c-0.5,10.3-0.4,20.6-0.6,30.9c-0.2,12-0.8,24-3.7,35.7c-1.1,4.3-2.5,8.5-5.5,12c-1.4,1.6-0.8,5.2-0.8,7.1c0.1,1.2-0.4,0.2-1.7,0.6
	c-2.8,0.7-5.6,1.8-8.5,2.4C176.4,209,174.1,210.5,171.6,209.6z"/>
<path class="st1" d="M171.7,209.6c2.4-0.4,4.7-0.7,7.1-1.2c2.9-0.6,5.6-1.6,8.5-2.4c0.4-0.1,0.6-0.2,1.7-0.6
	c0.9-0.4,0.7-0.3,1.7-0.8c17.6-7.9,29.8-20.7,36.6-38.7c0.4-1.1,0.9-0.9,1.6-0.7c4,1.1,8,1.5,12.1,1.5c4.6-0.1,9.2-0.8,13.6-2.1
	c0.8-0.2,1.8-1,2.5-0.3c0.6,0.6-0.1,1.6-0.3,2.4c-1.5,6.3-3.8,12.4-6.6,18.2c-2.4,5-5.3,9.8-8.6,14.3c-0.8,1.1-0.8,1.8,0.2,2.8
	c10.1,10.1,20.2,20.2,30.3,30.3c1.1,1.1,1.7,1.2,2.8,0.1c4.7-4.8,9.6-9.5,14.3-14.4c3-3.1,6.2-5.9,9.2-9c0.8-0.8,1.3-0.7,2,0
	c3.7,3.8,7.4,7.5,11.2,11.2c1.1,1,1.1,1.6,0,2.7c-7.7,7.6-15.3,15.3-23,22.9c-1.2,1.2-1.2,1.8,0,3c5.1,5,10.1,10.1,15.1,15.2
	c1.8,1.8,3.7,3.6,5.6,5.4c0.8,0.7,0.8,1.3,0,2.1c-3.8,3.8-7.7,7.5-11.4,11.4c-1,1-1.7,0.9-2.6,0c-6.6-6.7-13.3-13.3-20-20
	c-1.8-1.8-1.8-1.7-3.5,0c-7.2,7.2-14.4,14.4-21.6,21.7c-1,1-1.6,1-2.6,0c-3.6-3.7-7.3-7.4-11.1-11.1c-1.1-1-1.1-1.7,0-2.8
	c7.3-7.3,14.6-14.6,21.9-21.8c1.3-1.2,1-1.8-0.1-2.9c-9.7-9.6-19.4-19.3-29.1-29c-1.9-1.9-1.9-1.9-3.9-0.3
	c-8.3,6.7-17.4,12.1-27.3,16c-0.3,0.1-0.5,0.3-0.8,0.4c-0.3,0-0.7,0-1,0.1c-3.7,1.1-7.4,2.3-11.1,3.2c-0.8,0.2-2-0.3-2.5,0.9
	c-3.4,0.9-6.9,0.5-10.3,1.3c-1.5,0.4-3.1,0.1-4.6,0.2c-7.2,0.2-14.3,0-21.4-1.5c-3.1-0.6-6.3-1.4-9.3-2.3c-3.8-1.2-7.6-2.4-11.2-4.2
	c-8-4-15.8-8.4-22.6-14.4c-1.1-1-2.2-2-3.4-3c-1-0.8-0.8-1.3,0.4-1.7c3.5-1.1,6.8-2.5,10-4.4c4.3-2.6,8.3-5.6,11.6-9.4
	c1.1-1.3,1.8-1.5,3.4-0.4c9.2,6.5,19.3,10.7,30.5,12.1c4.9,0.6,9.8,0.9,14.7,0.3C170.8,209.7,171,209.7,171.7,209.6z"/>
<path class="st1" d="M163.5,48c12.7-0.1,23.6,2,34.3,6c9.6,3.5,18.2,8.7,26.3,14.9c1.3,1,1.2,1.3-0.4,1.9
	c-7.2,2.7-13.5,6.7-18.8,12.2c-1,1.1-2,2.3-2.9,3.4c-0.6,0.7-1,0.9-1.9,0.3c-7.3-4.7-15.2-7.8-23.7-9.3c-6.3-1.1-12.6-1.2-19-0.6
	c-11.1,1-21.2,4.8-30.4,11c-10.5,7.2-18.5,16.6-23.7,28.2c-1,2.2-1,2.1-3.4,1.3c-5.9-1.8-12-2.8-18.2-2.1c-2.4,0.3-4.8,0.5-7.1,1
	c-1.5,0.3-1.6-0.4-1.2-1.4c2-5.8,4.2-11.6,7.2-17c5.2-9.5,11.8-17.9,19.8-25.2c7.5-6.8,15.9-12.3,25.1-16.4c6.4-2.8,12.9-5,19.8-6.4
	C151.6,48.5,158.2,47.8,163.5,48z"/>
<path class="st1" d="M253.6,142.9c0.5,7.8-5.5,15.2-12.6,16.6c-4.2,0.8-8.2,0-11.9-2.1c-5.6-3.2-10.1-7.6-14-12.7
	c-1.6-2.1-2.8-4.6-3.2-7.2c-0.5-3.6,1.5-6.6,5.7-8.1c6-2.3,12.2-3.8,18.7-3.8C246.2,125.4,253.8,132.8,253.6,142.9z"/>
<path class="st1" d="M114.6,175.9c0,5.4-0.6,9.9-2,14.2c-1.2,3.8-3.1,7.3-6.6,9.6c-5.8,3.9-14.4,3.2-19.6-1.6
	c-5.9-5.4-7.5-12.4-4.5-19.7c1.5-3.6,4.4-5.9,7.4-8.1c3.9-2.8,8-5,12.5-6.7c7.1-2.6,10.8,1.1,12.4,7.5
	C114.6,173,114.6,174.8,114.6,175.9z"/>
<path class="st0" d="M182.6,237.1c0.5-1.2,1.7-0.7,2.5-0.9c3.8-0.9,7.4-2.1,11.1-3.2c0.3-0.1,0.7-0.1,1-0.1c0.8,2.4,1.7,4.7,2.5,7.1
	c0.7,2,0.4,2.8-1.7,3.5c-3.1,1-6.3,1.9-9.3,3.2c-0.5,0.2-1,0.6-1.5,0.6c-0.9,0.1-1.9,0.6-2.4-0.7
	C183.8,243.5,183.2,240.3,182.6,237.1z"/>
<g>
	<path class="st2" d="M450.7,220.9c-0.9,0.3-2.6,0.8-4.6,0.8c-2.2,0-4.1-0.6-5.5-2c-1.3-1.2-2.1-3.2-2.1-5.5c0-4.4,3.1-7.7,8-7.7
		c1.7,0,3.1,0.4,3.7,0.7l-0.5,1.6c-0.8-0.4-1.8-0.6-3.3-0.6c-3.6,0-6,2.2-6,6c0,3.8,2.2,6,5.7,6c1.3,0,2.1-0.2,2.6-0.4v-4.4h-3v-1.5
		h4.9V220.9z"/>
	<path class="st2" d="M460.4,206.7v14.8h-1.9v-14.8H460.4z"/>
	<path class="st2" d="M468.6,221.5v-14.8h2.1l4.7,7.5c1.1,1.7,2,3.3,2.6,4.8l0.1,0c-0.2-2-0.2-3.8-0.2-6.1v-6.2h1.8v14.8h-1.9
		l-4.7-7.5c-1-1.7-2-3.3-2.8-5l-0.1,0c0.1,1.9,0.1,3.7,0.1,6.1v6.3H468.6z"/>
	<path class="st2" d="M495.5,214.6h-5.7v5.3h6.4v1.6h-8.4v-14.8h8v1.6h-6.1v4.7h5.7V214.6z"/>
	<path class="st2" d="M513.9,221c-0.7,0.4-2.1,0.7-3.9,0.7c-4.2,0-7.3-2.6-7.3-7.5c0-4.6,3.1-7.8,7.7-7.8c1.8,0,3,0.4,3.5,0.6
		l-0.5,1.6c-0.7-0.4-1.7-0.6-3-0.6c-3.5,0-5.8,2.2-5.8,6.1c0,3.6,2.1,5.9,5.7,5.9c1.2,0,2.4-0.2,3.1-0.6L513.9,221z"/>
	<path class="st2" d="M526.5,221.8c-3.9,0-6.7-3-6.7-7.5c0-4.7,2.9-7.8,6.9-7.8c4.1,0,6.7,3.1,6.7,7.5
		C533.4,219,530.3,221.8,526.5,221.8L526.5,221.8z M526.6,220.2c3,0,4.8-2.8,4.8-6.2c0-2.9-1.5-6-4.7-6c-3.2,0-4.8,3-4.8,6.2
		C521.8,217.3,523.6,220.2,526.6,220.2L526.6,220.2z"/>
	<path class="st2" d="M540.7,206.7h1.9v13.2h6.3v1.6h-8.3V206.7z"/>
	<path class="st2" d="M560.8,221.8c-3.9,0-6.7-3-6.7-7.5c0-4.7,2.9-7.8,6.9-7.8c4.1,0,6.7,3.1,6.7,7.5
		C567.7,219,564.6,221.8,560.8,221.8L560.8,221.8z M561,220.2c3,0,4.8-2.8,4.8-6.2c0-2.9-1.5-6-4.7-6c-3.2,0-4.8,3-4.8,6.2
		C556.2,217.3,557.9,220.2,561,220.2L561,220.2z"/>
	<path class="st2" d="M586.4,220.9c-0.9,0.3-2.6,0.8-4.6,0.8c-2.2,0-4.1-0.6-5.5-2c-1.3-1.2-2.1-3.2-2.1-5.5c0-4.4,3.1-7.7,8-7.7
		c1.7,0,3.1,0.4,3.7,0.7l-0.5,1.6c-0.8-0.4-1.8-0.6-3.3-0.6c-3.6,0-6,2.2-6,6c0,3.8,2.2,6,5.7,6c1.3,0,2.1-0.2,2.6-0.4v-4.4h-3v-1.5
		h4.9V220.9z"/>
	<path class="st2" d="M596,206.7v14.8h-1.9v-14.8H596z"/>
	<path class="st2" d="M606.6,216.8l-1.5,4.7h-2l5-14.8h2.3l5.1,14.8h-2l-1.6-4.7H606.6z M611.5,215.4l-1.5-4.3
		c-0.3-1-0.5-1.8-0.7-2.7h-0.1c-0.2,0.9-0.4,1.8-0.7,2.7l-1.5,4.3H611.5z"/>
	<path class="st2" d="M639.7,214.6h-5.7v5.3h6.4v1.6H632v-14.8h8v1.6h-6.1v4.7h5.7V214.6z"/>
	<path class="st2" d="M663,221.8c-3.9,0-6.7-3-6.7-7.5c0-4.7,2.9-7.8,6.9-7.8c4.1,0,6.7,3.1,6.7,7.5
		C669.9,219,666.7,221.8,663,221.8L663,221.8z M663.1,220.2c3,0,4.8-2.8,4.8-6.2c0-2.9-1.5-6-4.7-6c-3.2,0-4.8,3-4.8,6.2
		C658.3,217.3,660,220.2,663.1,220.2L663.1,220.2z"/>
	<path class="st2" d="M677.2,206.9c0.8-0.2,2.2-0.3,3.5-0.3c1.9,0,3.1,0.3,4,1.1c0.8,0.6,1.3,1.5,1.3,2.6c0,1.5-1,2.7-2.5,3.3v0.1
		c1.4,0.3,3.1,1.5,3.1,3.7c0,1.3-0.5,2.2-1.3,3c-1,0.9-2.7,1.4-5.1,1.4c-1.3,0-2.3-0.1-3-0.2V206.9z M679.1,213h1.7
		c2,0,3.2-1.1,3.2-2.5c0-1.7-1.3-2.4-3.2-2.4c-0.9,0-1.4,0.1-1.7,0.1V213z M679.1,220.1c0.4,0.1,0.9,0.1,1.6,0.1
		c2,0,3.8-0.7,3.8-2.9c0-2-1.7-2.9-3.8-2.9h-1.6V220.1z"/>
	<path class="st2" d="M693.7,219.2c0.9,0.5,2.1,0.9,3.4,0.9c2,0,3.1-1,3.1-2.5c0-1.4-0.8-2.2-2.8-2.9c-2.4-0.8-3.9-2.1-3.9-4.2
		c0-2.3,1.9-4,4.8-4c1.5,0,2.6,0.4,3.3,0.7l-0.5,1.6c-0.5-0.3-1.5-0.7-2.8-0.7c-2,0-2.8,1.2-2.8,2.2c0,1.4,0.9,2,2.9,2.8
		c2.5,1,3.8,2.2,3.8,4.4c0,2.3-1.7,4.3-5.2,4.3c-1.4,0-3-0.4-3.8-1L693.7,219.2z"/>
	<path class="st2" d="M712.4,208.3h-4.5v-1.6h11v1.6h-4.5v13.2h-1.9V208.3z"/>
	<path class="st2" d="M733.1,214.6h-5.7v5.3h6.4v1.6h-8.4v-14.8h8v1.6h-6.1v4.7h5.7V214.6z"/>
	<path class="st2" d="M744.2,208.3h-4.5v-1.6h11v1.6h-4.5v13.2h-1.9V208.3z"/>
	<path class="st2" d="M757.2,206.9c1-0.2,2.4-0.3,3.7-0.3c2,0,3.4,0.4,4.3,1.2c0.7,0.6,1.2,1.7,1.2,2.8c0,1.9-1.3,3.2-2.8,3.8v0.1
		c1.1,0.4,1.8,1.5,2.2,3c0.5,2.1,0.8,3.5,1.1,4.1h-2c-0.2-0.4-0.6-1.7-1-3.5c-0.4-2-1.3-2.8-3-2.9h-1.8v6.4h-1.9V206.9z
		 M759.1,213.6h2c2,0,3.3-1.1,3.3-2.8c0-1.9-1.4-2.8-3.4-2.8c-0.9,0-1.6,0.1-1.9,0.2V213.6z"/>
	<path class="st2" d="M778,203.3l-2.8,2.6h-1.6l2-2.6H778z M775.8,206.7v14.8h-1.9v-14.8H775.8z"/>
	<path class="st2" d="M794.3,221c-0.7,0.4-2.1,0.7-3.9,0.7c-4.2,0-7.3-2.6-7.3-7.5c0-4.6,3.1-7.8,7.7-7.8c1.8,0,3,0.4,3.5,0.6
		l-0.5,1.6c-0.7-0.4-1.7-0.6-3-0.6c-3.5,0-5.8,2.2-5.8,6.1c0,3.6,2.1,5.9,5.7,5.9c1.2,0,2.4-0.2,3.1-0.6L794.3,221z"/>
	<path class="st2" d="M803.5,206.7v14.8h-1.9v-14.8H803.5z"/>
	<path class="st2" d="M814.1,216.8l-1.5,4.7h-2l5-14.8h2.3l5.1,14.8h-2l-1.6-4.7H814.1z M818.9,215.4l-1.5-4.3
		c-0.3-1-0.5-1.8-0.7-2.7h-0.1c-0.2,0.9-0.4,1.8-0.7,2.7l-1.5,4.3H818.9z"/>
</g>
<g>
	<path class="st2" d="M364,141.7c1.1,1.2,2,2.8,2.9,4.8c0.8,2,1.4,4.2,1.6,6.7c0.3,2.5,0.3,5.1-0.1,7.8c-0.3,2.8-1.1,5.5-2.2,8.1
		c-1.2,2.7-2.8,5.2-4.9,7.7c-2.1,2.4-4.8,4.6-8,6.4c-2.4,1.4-4.8,2.5-7.1,3.4c-2.3,0.9-4.5,1.6-6.7,2.1c-2.2,0.5-4.2,0.8-6.2,0.9
		c-2,0.1-3.9,0.1-5.7-0.1c-1,1.3-2,2.3-3,3.1c-1,0.8-1.9,1.3-2.9,1.5c-0.2,0-0.3,0-0.4-0.1c-0.1-0.1-0.1-0.2-0.1-0.4
		c0-0.2,0.1-0.4,0.3-0.8c0.1-0.2,0.3-0.6,0.6-1.2c0.3-0.7,0.8-1.6,1.3-2.7c-2.6-0.5-5-1.3-7-2.2c-2-1-3.7-2-5-3
		c-1.1-0.9-1.9-1.9-2.6-3.2s-1-2.7-1.1-4.2c-0.1-1.5,0-3,0.4-4.6c0.4-1.6,1.1-3,2.1-4.4c1-1.4,2.2-2.6,3.8-3.7
		c1.5-1.1,3.4-1.9,5.6-2.4c2.1-0.5,4-0.6,5.5-0.3c1.5,0.3,2.7,0.8,3.7,1.4c1.1,0.7,2.1,1.6,2.8,2.7c-0.9-0.2-2-0.2-3.3-0.1
		c-1.2,0.1-2.5,0.5-3.7,1c-1.2,0.5-2.4,1.2-3.5,2.1c-1.1,0.9-1.9,1.9-2.5,3.2c-0.7,1.5-1.1,2.9-1.4,4.5c-0.2,1.5-0.1,3,0.3,4.3
		c0.4,1.4,1.2,2.6,2.3,3.7c1.1,1.1,2.7,1.9,4.7,2.5c1.1-2.3,2.2-5,3.6-8.2c1.3-3.2,2.6-6.5,3.9-10c1.3-3.5,2.5-7.1,3.6-10.7
		c1.1-3.6,1.9-7.1,2.5-10.4c1.3-0.8,2.5-1.5,3.7-2.1c1.1-0.6,2.1-1.1,3.3-1.5c1.1-0.4,2.1-0.7,3-0.7c-1.9,5.7-3.8,11.3-5.9,16.8
		c-0.9,2.3-1.8,4.7-2.9,7.2c-1,2.5-2.1,4.9-3.2,7.4c-1.1,2.4-2.3,4.7-3.4,6.9c-1.2,2.2-2.4,4.2-3.5,6c2.4,0,5-0.6,7.8-1.7
		c2.8-1.1,5.4-2.6,8-4.6c2.6-2,4.9-4.3,6.9-7.1c2.1-2.8,3.6-5.8,4.7-9.2c1.2-3.7,1.8-7,1.7-9.9c-0.1-2.9-0.5-5.5-1.2-7.6
		c-0.8-2.1-1.7-3.9-2.8-5.2c-1.1-1.4-2.1-2.3-3-2.9c-0.9-0.6-2-0.9-3.3-1.1c-1.3-0.2-2.7-0.1-4.2,0.2c-1.5,0.3-3.1,0.8-4.8,1.6
		c-1.7,0.8-3.4,1.8-5,3c-0.9,0.6-1.7,1.1-2.6,1.5c-0.9,0.3-1.8,0.5-2.6,0.7c-0.9,0.1-1.8,0.2-2.6,0.1c-0.8-0.1-1.6-0.2-2.4-0.3
		c-1.8-0.4-3.5-1-5.2-1.9c1.8-1.4,3.9-2.7,6.1-3.9c1.9-1,4.2-1.9,6.9-2.7c2.7-0.9,5.6-1.3,8.8-1.4c2.9,0,5.5,0,7.7,0.2
		c2.2,0.1,4.2,0.5,6,1c1.8,0.5,3.4,1.3,4.9,2.3C360.8,138.7,362.4,140,364,141.7z"/>
	<path class="st2" d="M378.5,157c-0.2,0.2-0.4,0.4-0.8,0.6c-0.4,0.2-0.6,0.2-0.7,0.2c-0.3-0.1-0.4-0.3-0.3-0.6
		c0.1-0.3,0.2-0.5,0.4-0.7c0.3-0.3,0.5-0.7,0.5-1.2c0.1-0.5,0.1-0.8-0.1-1.1c-0.1-0.2-0.4-0.3-0.8-0.1c-0.4,0.2-0.9,0.7-1.6,1.6
		c-0.6,0.7-0.7,1.3-0.5,1.8c0.3,0.5,1.1,0.8,2.5,1c0.6,0.1,1.3,0.1,1.9,0.1c0.6,0,1.2,0,1.8-0.1c0.6,0,1.3,0,1.9-0.1
		c0.7,0,1.4,0,2.2,0.1c1.3,0.2,2.2,0.4,2.9,0.8c0.6,0.4,1,0.9,1.1,1.4c0.1,0.6,0.1,1.2-0.1,1.9c-0.2,0.7-0.5,1.5-0.9,2.3
		c-1.7,3.8-3,7-4,9.6c-1,2.6-1.4,4.4-1.3,5.4c0,0.7,0.4,1.1,1.1,1.3c0.7,0.2,1.3,0.1,1.8-0.2c0.5-0.4,1.1-0.9,1.7-1.5
		c0.6-0.6,1.2-1.3,1.7-2c0.6-0.7,1.1-1.5,1.6-2.2c0.5-0.8,1-1.5,1.4-2.1c0.2-0.4,0.5-0.6,0.6-0.7c0.2-0.1,0.3-0.1,0.4,0
		c0.1,0.1,0.2,0.2,0.2,0.4c0,0.2-0.1,0.4-0.2,0.6c-0.5,0.9-1,1.7-1.4,2.5c-0.4,0.8-0.8,1.5-1.2,2.2c-0.4,0.7-0.9,1.4-1.4,2
		s-1.1,1.2-1.8,1.9c-0.5,0.4-1,0.8-1.5,1c-0.5,0.2-1,0.4-1.5,0.5c-0.5,0.1-1.2,0.2-1.9,0.2s-1.6,0-2.6-0.1c-1.2-0.1-2.1-0.3-2.8-0.8
		c-0.6-0.4-1.1-1-1.3-1.7c-0.2-0.7-0.2-1.4-0.1-2.3c0.1-0.9,0.3-1.7,0.5-2.7c0.3-1.1,0.6-2,1-2.9c0.4-0.9,0.7-1.8,1.1-2.7
		c0.4-0.9,0.7-1.8,1.2-2.8c0.4-1,0.8-2,1.2-3.2c0.2-0.4,0.3-0.8,0.2-1.1c-0.1-0.3-0.3-0.6-0.8-0.8c-0.4-0.2-1-0.3-1.8-0.2
		c-0.8,0-1.8,0.2-3,0.4c-1.7,0.4-2.8,0.2-3.6-0.6c-0.7-0.7-1-1.7-0.9-2.9c0.1-1.2,0.7-2.5,1.6-3.8c0.9-1.3,2.2-2.4,3.9-3.3
		c0.6-0.3,1.3-0.5,1.9-0.5c0.6,0,1.1,0,1.5,0.2c0.4,0.2,0.7,0.5,0.9,0.9c0.2,0.4,0.1,0.9-0.1,1.4c-0.2,0.5-0.4,0.9-0.7,1.3
		C379.3,156,379,156.5,378.5,157z"/>
	<path class="st2" d="M418.8,179.3c0.7-0.8,1.5-1.8,2.3-3c0.8-1.2,1.6-2.3,2.3-3.5c0.7-1.2,1.4-2.2,2-3.2c0.6-1,1-1.7,1.3-2.1
		c0.1-0.2,0.3-0.3,0.5-0.3c0.2,0,0.4,0,0.5,0.2c0.1,0.1,0.2,0.3,0.3,0.6c0,0.3,0,0.5-0.2,0.8c-0.3,0.6-0.8,1.3-1.4,2.3
		c-0.6,1-1.2,2-1.8,3c-0.6,1-1.2,2-1.8,2.9c-0.6,0.9-1,1.6-1.4,2c-1.3,1.8-2.8,3.1-4.4,3.7c-1.6,0.6-3.4,0.6-5.1,0
		c-1.3-0.5-2.2-1.3-2.7-2.5c-0.5-1.2-0.6-2.5-0.3-3.9c0.1-0.6,0.3-1.4,0.5-2.3c0.2-0.9,0.5-1.8,0.8-2.7c0.3-0.9,0.5-1.6,0.7-2.3
		c0.2-0.7,0.3-1.1,0.4-1.2c-0.4,0.6-0.9,1.4-1.5,2.3c-0.6,0.9-1.1,1.8-1.7,2.7c-0.6,0.9-1.1,1.7-1.5,2.4c-0.5,0.7-0.8,1.1-0.9,1.3
		c-1.3,1.7-2.4,3-3.3,3.9c-0.9,1-1.9,1.8-2.9,2.4c-0.4,0.2-1,0.4-1.9,0.6c-0.9,0.1-1.8,0.1-2.8,0c-1-0.1-1.9-0.5-2.7-0.9
		c-0.9-0.5-1.5-1.2-1.8-2.2c-0.4-1.1-0.5-2.3-0.4-3.6c0.2-1.3,0.4-2.6,0.9-3.9c0.4-1.3,0.9-2.5,1.4-3.5c0.5-1.1,1-1.9,1.3-2.5
		c1.8-3,4-5.6,6.7-7.9c2.7-2.3,5.8-3.8,9.5-4.6c3.3-0.7,6.4-0.7,9.2-0.1c0.4,0.1,0.8,0.3,1.2,0.5c0.4,0.2,0.7,0.4,0.9,0.7
		c0.2,0.3,0.4,0.5,0.3,0.8c0,0.3-0.3,0.5-0.7,0.7c-0.2,0.1-0.7,0.2-1.4,0.4c-0.7,0.2-1.6,0.4-2.5,0.6c-0.9,0.3-1.9,0.6-2.9,0.9
		c-1,0.3-1.9,0.7-2.6,1.2c-1.9,1.1-3.6,2.5-5.1,4s-2.7,3-3.7,4.5c-1,1.5-1.8,2.9-2.4,4.1c-0.6,1.3-1,2.2-1.1,2.7
		c-0.4,1.1-0.6,2-0.6,2.6c0,0.6,0.1,1.1,0.2,1.4c0.2,0.3,0.4,0.5,0.7,0.5c0.3,0,0.6,0,0.9-0.1c0.6-0.2,1.3-0.7,2.1-1.6
		c0.8-0.9,1.6-1.9,2.5-3c0.8-1.1,1.6-2.3,2.4-3.5c0.8-1.2,1.4-2.2,1.9-3.1c1.5-2.7,2.8-4.7,3.9-5.9c1.1-1.3,1.9-2,2.6-2.3
		c1.1-0.4,2.2-0.7,3.3-0.9c1.1-0.1,1.9-0.1,2.6,0.1c0.4,0.1,0.5,0.5,0.5,1.2c-0.1,0.7-0.3,1.6-0.6,2.6c-0.4,1.1-0.8,2.2-1.4,3.6
		c-0.6,1.3-1.1,2.7-1.7,4c-0.6,1.4-1.2,2.7-1.7,4.1c-0.6,1.3-1,2.6-1.3,3.6c-0.2,0.6-0.2,1.1,0,1.5c0.2,0.4,0.5,0.7,0.9,0.8
		c0.4,0.1,0.9,0.1,1.5-0.1C417.6,180.4,418.2,180,418.8,179.3z"/>
	<path class="st2" d="M469.4,131.3c1.1,0.9,2,1.9,2.6,3.2c0.6,1.3,1,3,1,5.3c0,2.2-0.2,5.1-0.9,8.6c-0.6,3.5-1.6,7.8-2.9,13.1
		c-1.5,5.8-3.2,10.7-5,14.6c-1.8,3.9-3.7,6.9-5.7,9.1c-2,2.2-4.1,3.6-6.3,4.2c-2.2,0.6-4.3,0.6-6.5,0c-1-0.3-1.8-0.7-2.5-1.3
		c-0.6-0.6-1.2-1.3-1.6-2.1c-0.4-0.8-0.7-1.6-0.8-2.6c-0.2-0.9-0.2-1.8-0.2-2.7c0-2.1,0.3-4.4,0.9-6.9c0,2.3,0.2,4.3,0.7,6
		c0.2,0.7,0.4,1.4,0.7,2c0.3,0.6,0.7,1.2,1.1,1.6c0.4,0.4,0.9,0.7,1.5,0.9c0.6,0.2,1.3,0.1,2.1-0.2c1.3-0.4,2.5-1.2,3.5-2.4
		c1-1.2,2-2.8,2.9-4.9c1-2.1,2-4.8,3-7.9c1.1-3.2,2.3-7.1,3.8-11.6c0.6-1.8,1.1-3.7,1.6-5.6c0.5-1.9,1-3.7,1.4-5.5
		c0.4-1.8,0.7-3.4,1-5c0.2-1.6,0.4-2.9,0.4-4.1c0-1.2-0.1-2.1-0.4-2.7c-0.3-0.6-0.7-1-1.3-1c-0.9,0-1.9,0.3-2.9,0.7
		c-1,0.4-2,1.2-3,2.2c-1,1-1.9,2.3-2.7,3.9c-0.9,1.6-1.5,3.6-2,5.9c-0.3,1.4-0.4,2.7-0.2,4c0.2,1.2,0.5,2.3,0.9,3.3
		c0.4,1,0.9,1.9,1.5,2.6c0.6,0.8,1.2,1.3,1.7,1.7c-2.4,0.4-4.5,0.2-6.2-0.5c-0.7-0.3-1.4-0.7-2.1-1.2c-0.7-0.5-1.3-1.2-1.8-2.1
		c-0.5-0.9-0.8-1.9-1-3.2c-0.2-1.3-0.2-2.8,0.1-4.5c0.3-2.3,1-4.4,2-6.2c1.1-1.8,2.4-3.3,3.9-4.6c1.5-1.3,3.2-2.3,4.9-3.1
		c1.8-0.8,3.5-1.3,5.1-1.6c1.7-0.3,3.2-0.4,4.6-0.2C467.6,130.4,468.6,130.8,469.4,131.3z M486.3,168.3c1.1,1.5,2.2,3.3,3.3,5.4
		c1.1,2.2,2.4,4.4,3.7,6.7c1.3,2.3,2.8,4.4,4.4,6.5c1.6,2,3.4,3.7,5.5,5c-2.3,0.2-4.6,0-6.8-0.7c-1-0.3-2-0.7-3-1.2
		s-2.1-1.1-3.1-1.9c-1.1-0.8-2.1-1.7-3.1-2.9c-1-1.1-1.9-2.5-2.8-4c-1.7-3.1-3.2-5.6-4.4-7.7c-1.2-2-2.3-3.7-3.2-5
		c-0.9-1.3-1.7-2.3-2.3-3.1c-0.7-0.7-1.3-1.4-2-1.9c-0.1,0-0.3-0.2-0.5-0.4c-0.3-0.2-0.5-0.4-0.8-0.7s-0.4-0.5-0.6-0.8
		c-0.1-0.3-0.1-0.5,0.1-0.7c1.3-2.1,2.7-4.1,4-6.1c1.2-1.7,2.5-3.5,3.9-5.5c1.4-1.9,2.7-3.7,4-5.3c1.3-1.6,2.8-3.2,4.6-4.8
		c1.8-1.6,3.7-3,5.7-4c2-1.1,4.2-1.7,6.4-1.8c2.2-0.1,4.4,0.5,6.6,2c-2.7,1.7-5.6,3.7-8.8,6.1c-2.8,2-6,4.5-9.6,7.5
		c-3.6,3-7.6,6.5-11.9,10.4c1.2,0.6,2.4,1.3,3.6,2.1c1.1,0.7,2.2,1.6,3.4,2.7C484.1,165.6,485.2,166.9,486.3,168.3z"/>
	<path class="st2" d="M521.7,179.3c0.7-0.8,1.5-1.8,2.3-3c0.8-1.2,1.6-2.3,2.3-3.5c0.7-1.2,1.4-2.2,2-3.2c0.6-1,1-1.7,1.3-2.1
		c0.1-0.2,0.3-0.3,0.5-0.3c0.2,0,0.4,0,0.5,0.2c0.1,0.1,0.2,0.3,0.3,0.6c0,0.3,0,0.5-0.2,0.8c-0.3,0.6-0.8,1.3-1.4,2.3
		c-0.6,1-1.2,2-1.8,3c-0.6,1-1.2,2-1.8,2.9c-0.6,0.9-1,1.6-1.4,2c-1.3,1.8-2.8,3.1-4.4,3.7c-1.6,0.6-3.4,0.6-5.1,0
		c-1.3-0.5-2.2-1.3-2.7-2.5c-0.5-1.2-0.6-2.5-0.3-3.9c0.1-0.6,0.3-1.4,0.5-2.3c0.2-0.9,0.5-1.8,0.8-2.7c0.3-0.9,0.5-1.6,0.7-2.3
		c0.2-0.7,0.3-1.1,0.4-1.2c-0.4,0.6-0.9,1.4-1.5,2.3c-0.6,0.9-1.1,1.8-1.7,2.7c-0.6,0.9-1.1,1.7-1.5,2.4c-0.5,0.7-0.8,1.1-0.9,1.3
		c-1.3,1.7-2.4,3-3.3,3.9c-0.9,1-1.9,1.8-2.9,2.4c-0.4,0.2-1,0.4-1.9,0.6c-0.9,0.1-1.8,0.1-2.8,0c-1-0.1-1.9-0.5-2.7-0.9
		c-0.9-0.5-1.5-1.2-1.8-2.2c-0.4-1.1-0.5-2.3-0.4-3.6c0.2-1.3,0.4-2.6,0.9-3.9c0.4-1.3,0.9-2.5,1.4-3.5c0.5-1.1,1-1.9,1.3-2.5
		c1.8-3,4-5.6,6.7-7.9c2.7-2.3,5.8-3.8,9.5-4.6c3.3-0.7,6.4-0.7,9.2-0.1c0.4,0.1,0.8,0.3,1.2,0.5c0.4,0.2,0.7,0.4,0.9,0.7
		c0.2,0.3,0.4,0.5,0.3,0.8c0,0.3-0.3,0.5-0.7,0.7c-0.2,0.1-0.7,0.2-1.4,0.4c-0.7,0.2-1.6,0.4-2.5,0.6c-0.9,0.3-1.9,0.6-2.9,0.9
		c-1,0.3-1.9,0.7-2.6,1.2c-1.9,1.1-3.6,2.5-5.1,4s-2.7,3-3.7,4.5c-1,1.5-1.8,2.9-2.4,4.1c-0.6,1.3-1,2.2-1.1,2.7
		c-0.4,1.1-0.6,2-0.6,2.6c0,0.6,0.1,1.1,0.2,1.4c0.2,0.3,0.4,0.5,0.7,0.5c0.3,0,0.6,0,0.9-0.1c0.6-0.2,1.3-0.7,2.1-1.6
		c0.8-0.9,1.6-1.9,2.5-3c0.8-1.1,1.6-2.3,2.4-3.5c0.8-1.2,1.4-2.2,1.9-3.1c1.5-2.7,2.8-4.7,3.9-5.9c1.1-1.3,1.9-2,2.6-2.3
		c1.1-0.4,2.2-0.7,3.3-0.9c1.1-0.1,1.9-0.1,2.6,0.1c0.4,0.1,0.5,0.5,0.5,1.2c-0.1,0.7-0.3,1.6-0.6,2.6c-0.4,1.1-0.8,2.2-1.4,3.6
		c-0.6,1.3-1.1,2.7-1.7,4c-0.6,1.4-1.2,2.7-1.7,4.1c-0.6,1.3-1,2.6-1.3,3.6c-0.2,0.6-0.2,1.1,0,1.5c0.2,0.4,0.5,0.7,0.9,0.8
		c0.4,0.1,0.9,0.1,1.5-0.1S521.1,180,521.7,179.3z"/>
	<path class="st2" d="M536.3,157c-0.2,0.2-0.4,0.4-0.8,0.6c-0.4,0.2-0.6,0.2-0.7,0.2c-0.3-0.1-0.4-0.3-0.3-0.6
		c0.1-0.3,0.2-0.5,0.4-0.7c0.3-0.3,0.5-0.7,0.5-1.2c0.1-0.5,0.1-0.8-0.1-1.1c-0.1-0.2-0.4-0.3-0.8-0.1c-0.4,0.2-0.9,0.7-1.5,1.6
		c-0.6,0.7-0.7,1.3-0.5,1.8c0.3,0.5,1.1,0.8,2.5,1c0.6,0.1,1.3,0.1,1.9,0.1c0.6,0,1.2,0,1.8-0.1c0.6,0,1.3,0,1.9-0.1
		c0.7,0,1.4,0,2.2,0.1c1.3,0.2,2.2,0.4,2.9,0.8c0.6,0.4,1,0.9,1.1,1.4c0.1,0.6,0.1,1.2-0.1,1.9c-0.2,0.7-0.5,1.5-0.9,2.3
		c-1.7,3.8-3,7-4,9.6c-1,2.6-1.4,4.4-1.3,5.4c0,0.7,0.4,1.1,1.1,1.3c0.7,0.2,1.3,0.1,1.8-0.2c0.5-0.4,1.1-0.9,1.7-1.5
		c0.6-0.6,1.2-1.3,1.7-2c0.6-0.7,1.1-1.5,1.6-2.2c0.5-0.8,1-1.5,1.4-2.1c0.2-0.4,0.5-0.6,0.6-0.7c0.2-0.1,0.3-0.1,0.4,0
		c0.1,0.1,0.2,0.2,0.2,0.4c0,0.2-0.1,0.4-0.2,0.6c-0.5,0.9-1,1.7-1.4,2.5c-0.4,0.8-0.8,1.5-1.2,2.2c-0.4,0.7-0.9,1.4-1.4,2
		s-1.1,1.2-1.8,1.9c-0.5,0.4-1,0.8-1.5,1c-0.5,0.2-1,0.4-1.5,0.5c-0.5,0.1-1.2,0.2-1.9,0.2s-1.6,0-2.6-0.1c-1.2-0.1-2.1-0.3-2.8-0.8
		s-1.1-1-1.3-1.7s-0.2-1.4-0.1-2.3c0.1-0.9,0.3-1.7,0.5-2.7c0.3-1.1,0.6-2,1-2.9c0.4-0.9,0.7-1.8,1.1-2.7c0.4-0.9,0.8-1.8,1.2-2.8
		c0.4-1,0.8-2,1.2-3.2c0.2-0.4,0.3-0.8,0.2-1.1c-0.1-0.3-0.3-0.6-0.8-0.8c-0.4-0.2-1-0.3-1.8-0.2c-0.8,0-1.8,0.2-3,0.4
		c-1.7,0.4-2.8,0.2-3.6-0.6c-0.7-0.7-1-1.7-0.9-2.9c0.1-1.2,0.7-2.5,1.6-3.8c0.9-1.3,2.2-2.4,3.9-3.3c0.6-0.3,1.3-0.5,1.9-0.5
		c0.6,0,1.1,0,1.5,0.2c0.4,0.2,0.7,0.5,0.9,0.9c0.2,0.4,0.1,0.9-0.1,1.4c-0.2,0.5-0.4,0.9-0.7,1.3S536.8,156.5,536.3,157z"/>
	<path class="st2" d="M566.9,154c-0.5,0.6-1.1,1.5-1.9,2.8c-0.8,1.3-1.6,2.7-2.5,4.3c-0.9,1.6-1.7,3.3-2.6,5.1
		c-0.8,1.8-1.5,3.5-2.1,5.1c-0.6,1.6-1,3.1-1.2,4.3s-0.2,2.2,0.2,2.8c0.2,0.3,0.4,0.4,0.9,0.2c0.4-0.2,0.9-0.5,1.4-0.9
		c0.5-0.4,1.1-1,1.8-1.7c0.6-0.7,1.3-1.4,1.9-2.2c1.5-1.8,3.2-3.9,5-6.4c0.1-0.1,0.2-0.2,0.4-0.3c0.2-0.2,0.5-0.2,0.7-0.2
		c0.2,0,0.2,0.2,0.2,0.4c0,0.1,0,0.2-0.1,0.2c-0.5,1.1-1.2,2.2-2,3.4s-1.7,2.4-2.6,3.6s-2,2.3-3,3.4c-1.1,1.1-2.1,2.1-3.2,2.9
		c-1.1,0.8-2.1,1.5-3,2c-1,0.5-1.8,0.8-2.5,0.8c-1.1,0-2-0.2-2.6-0.5s-1.2-0.7-1.6-1.2c-0.4-0.5-0.6-1-0.8-1.6
		c-0.1-0.6-0.2-1.1-0.3-1.7c0-0.4,0.1-1.1,0.3-2.1s0.6-2.3,1-3.7c0.4-1.4,1-3,1.5-4.6c0.6-1.6,1.2-3.2,1.9-4.7
		c0.7-1.5,1.3-2.9,2-4.1c0.7-1.2,1.4-2.2,2-2.8c0.9-0.9,2-1.6,3.3-2c1.3-0.4,2.4-0.6,3.5-0.8C564.3,153.8,565.6,153.8,566.9,154z
		 M569,148.3c-0.4,0.3-1.1,0.5-2,0.7c-0.9,0.2-1.9,0.3-2.9,0.4c-1,0.1-1.9,0.1-2.7,0.1s-1.3,0-1.5-0.1c-0.4-0.1-0.3-0.3,0.2-0.8
		c0.5-0.4,1.2-1.2,2-2.2c0.4-0.5,1.2-0.9,2.4-1.4c1.1-0.4,2.3-0.8,3.4-1c1.2-0.3,2.2-0.4,3.1-0.5c0.9-0.1,1.3,0,1.3,0.1
		c0,0.2-0.2,0.5-0.5,1c-0.3,0.5-0.7,1-1.2,1.6C570.3,146.8,569.7,147.5,569,148.3z"/>
	<path class="st2" d="M571.2,152.2c0.9-0.5,1.8-0.8,2.7-1c0.7-0.1,1.5-0.1,2.2,0.2s1.3,0.9,1.7,1.9c0.4,1.1,0.5,2.3,0.4,3.6
		c-0.2,1.4-0.4,2.7-0.7,3.9c-0.4,1.5-0.9,2.9-1.6,4.4c1.3-2.1,2.6-4.1,4.1-5.9c0.6-0.8,1.3-1.5,2-2.3c0.7-0.8,1.5-1.5,2.3-2.2
		c0.8-0.7,1.6-1.3,2.4-1.8c0.8-0.5,1.7-0.9,2.6-1.2c1.7-0.5,3.2-0.7,4.4-0.5c1.2,0.2,2.2,0.6,2.9,1.2c0.7,0.6,1.2,1.3,1.5,2.1
		c0.3,0.8,0.4,1.5,0.3,2.1c-0.1,0.7-0.3,1.7-0.7,2.8s-0.9,2.4-1.5,3.8c-0.6,1.4-1.2,2.7-1.9,4.2c-0.6,1.4-1.3,2.8-1.9,4.1
		c-0.6,1.3-1.1,2.5-1.6,3.6s-0.8,1.9-0.9,2.4c-0.2,0.9-0.3,1.5-0.1,1.9c0.2,0.4,0.5,0.6,0.9,0.6c0.4,0,0.9-0.1,1.4-0.4
		c0.5-0.3,1-0.6,1.5-0.9c0.4-0.3,0.9-0.9,1.5-1.6c0.6-0.8,1.3-1.6,1.9-2.5c0.7-0.9,1.4-1.9,2.1-2.8c0.7-1,1.3-1.9,1.9-2.7
		c0.6-0.8,1-1.5,1.4-2.1c0.4-0.5,0.6-0.8,0.6-0.9c0.1-0.1,0.2-0.3,0.5-0.5c0.2-0.2,0.5-0.2,0.8,0c0.2,0.2,0.3,0.4,0.1,0.9l-0.2,0.6
		c-1.5,2.4-3,4.5-4.3,6.4c-0.6,0.9-1.2,1.7-1.8,2.5c-0.6,0.8-1.2,1.6-1.7,2.3s-1,1.3-1.5,1.9c-0.4,0.5-0.8,0.9-1.1,1.2
		c-0.8,0.6-1.8,1.1-2.9,1.4c-1.1,0.3-2.2,0.4-3.3,0.3c-1.1-0.1-2.1-0.4-3-0.9c-0.9-0.5-1.6-1.2-2.1-2.2c-0.3-0.6-0.4-1.6-0.3-2.7
		c0.1-1.2,0.4-2.5,0.8-3.9c0.4-1.4,0.9-2.9,1.4-4.4s1.1-2.9,1.6-4.2c0.5-1.3,1-2.4,1.5-3.3c0.4-0.9,0.7-1.5,0.9-1.7
		c0.3-0.6,0.5-1.2,0.6-1.8c0.1-0.6-0.1-1.1-0.4-1.5s-0.8-0.5-1.5-0.4c-0.7,0.1-1.6,0.6-2.7,1.4c-0.8,0.6-1.6,1.4-2.5,2.4
		c-0.9,1-1.8,2.2-2.7,3.4c-0.9,1.3-1.8,2.6-2.7,4c-0.9,1.4-1.7,2.7-2.5,4s-1.4,2.5-2,3.5c-0.6,1.1-1,1.9-1.3,2.5
		c-0.4,0.9-0.7,1.8-0.9,2.5c-0.1,0.7-0.2,1.3-0.2,1.7c0,0.5,0.1,1,0.2,1.4c-1.3-0.3-2.4-0.7-3.2-1.2c-0.8-0.5-1.5-1.2-1.9-1.8
		c-0.5-0.7-0.8-1.3-1-2c-0.2-0.7-0.3-1.3-0.4-1.8c0-0.3,0.1-0.9,0.3-1.7c0.3-0.8,0.6-1.7,1-2.7c0.4-1,0.9-2.1,1.4-3.3
		c0.5-1.2,1-2.4,1.5-3.5s0.9-2.2,1.3-3.3c0.4-1,0.7-1.9,0.9-2.6c0.5-2.1,0.9-3.8,1.1-5C571.2,153.3,571.2,152.7,571.2,152.2z"/>
	<path class="st2" d="M628.4,179.3c0.7-0.8,1.5-1.8,2.3-3c0.8-1.2,1.6-2.3,2.3-3.5c0.7-1.2,1.4-2.2,2-3.2c0.6-1,1-1.7,1.3-2.1
		c0.1-0.2,0.3-0.3,0.5-0.3c0.2,0,0.4,0,0.5,0.2c0.1,0.1,0.2,0.3,0.3,0.6c0,0.3,0,0.5-0.2,0.8c-0.3,0.6-0.8,1.3-1.4,2.3
		c-0.6,1-1.2,2-1.8,3c-0.6,1-1.2,2-1.8,2.9c-0.6,0.9-1,1.6-1.4,2c-1.3,1.8-2.8,3.1-4.4,3.7c-1.6,0.6-3.4,0.6-5.1,0
		c-1.3-0.5-2.2-1.3-2.7-2.5c-0.5-1.2-0.6-2.5-0.3-3.9c0.1-0.6,0.3-1.4,0.5-2.3c0.2-0.9,0.5-1.8,0.8-2.7c0.3-0.9,0.5-1.6,0.7-2.3
		c0.2-0.7,0.3-1.1,0.4-1.2c-0.4,0.6-0.9,1.4-1.5,2.3c-0.6,0.9-1.1,1.8-1.7,2.7c-0.6,0.9-1.1,1.7-1.5,2.4c-0.5,0.7-0.8,1.1-0.9,1.3
		c-1.3,1.7-2.4,3-3.3,3.9c-0.9,1-1.9,1.8-2.9,2.4c-0.4,0.2-1,0.4-1.9,0.6c-0.9,0.1-1.8,0.1-2.8,0c-1-0.1-1.9-0.5-2.7-0.9
		c-0.9-0.5-1.5-1.2-1.8-2.2c-0.4-1.1-0.5-2.3-0.4-3.6c0.2-1.3,0.4-2.6,0.9-3.9c0.4-1.3,0.9-2.5,1.4-3.5c0.5-1.1,1-1.9,1.3-2.5
		c1.8-3,4-5.6,6.7-7.9c2.7-2.3,5.8-3.8,9.5-4.6c3.3-0.7,6.4-0.7,9.2-0.1c0.4,0.1,0.8,0.3,1.2,0.5c0.4,0.2,0.7,0.4,0.9,0.7
		c0.2,0.3,0.4,0.5,0.3,0.8c0,0.3-0.3,0.5-0.7,0.7c-0.2,0.1-0.7,0.2-1.4,0.4c-0.7,0.2-1.6,0.4-2.5,0.6c-0.9,0.3-1.9,0.6-2.9,0.9
		c-1,0.3-1.9,0.7-2.6,1.2c-1.9,1.1-3.6,2.5-5.1,4s-2.7,3-3.7,4.5c-1,1.5-1.8,2.9-2.4,4.1c-0.6,1.3-1,2.2-1.1,2.7
		c-0.4,1.1-0.6,2-0.6,2.6c0,0.6,0.1,1.1,0.2,1.4c0.2,0.3,0.4,0.5,0.7,0.5c0.3,0,0.6,0,0.9-0.1c0.6-0.2,1.3-0.7,2.1-1.6
		c0.8-0.9,1.6-1.9,2.5-3c0.8-1.1,1.6-2.3,2.4-3.5c0.8-1.2,1.4-2.2,1.9-3.1c1.5-2.7,2.8-4.7,3.9-5.9c1.1-1.3,1.9-2,2.6-2.3
		c1.1-0.4,2.2-0.7,3.3-0.9c1.1-0.1,1.9-0.1,2.6,0.1c0.4,0.1,0.5,0.5,0.5,1.2c-0.1,0.7-0.3,1.6-0.6,2.6c-0.4,1.1-0.8,2.2-1.4,3.6
		c-0.6,1.3-1.1,2.7-1.7,4c-0.6,1.4-1.2,2.7-1.7,4.1c-0.6,1.3-1,2.6-1.3,3.6c-0.2,0.6-0.2,1.1,0,1.5c0.2,0.4,0.5,0.7,0.9,0.8
		c0.4,0.1,0.9,0.1,1.5-0.1S627.8,180,628.4,179.3z"/>
	<path class="st2" d="M674.9,136.5c2.5-1.3,5.1-2.1,7.7-2.6c2.6-0.5,5.2-0.6,7.6-0.4c2.4,0.2,4.6,0.7,6.7,1.5c2,0.8,3.7,1.8,5.1,3.1
		c1.3,1.2,2.3,2.7,2.8,4.3c0.5,1.6,0.4,3.3-0.3,5.1c-0.7,1.8-1.8,3.2-3.3,4.1c-1.5,0.9-3.2,1.5-5.2,1.8c-2,0.3-4.1,0.3-6.3,0
		c-2.2-0.3-4.4-0.7-6.6-1.3c-2.2-0.6-4.2-1.3-6.1-2.2c-1.9-0.8-3.5-1.7-4.8-2.5c-0.2-0.1-0.3-0.2-0.5-0.3c-0.2-0.1-0.3-0.2-0.5-0.3
		c-1.1,1.6-2.1,3.3-2.9,5c-0.8,1.7-1.5,3.4-2.2,5.1c-0.6,1.7-1.1,3.3-1.6,4.8c-0.4,1.5-0.8,2.8-1.2,4c-0.3,1.2-0.7,2.6-1,4.3
		c-0.3,1.7-0.6,3.5-0.6,5.3c-0.1,1.8,0,3.6,0.3,5.4s0.9,3.4,1.8,4.9c0.9,1.4,2.1,2.6,3.8,3.5c1.6,0.9,3.7,1.3,6.3,1.3
		c2.6,0,5-0.4,7.2-1.3c2.2-0.9,4.2-2,6-3.3c1.8-1.3,3.4-2.7,4.8-4.3c1.4-1.5,2.6-3,3.6-4.3s1.7-2.5,2.2-3.5c0.5-1,0.9-1.5,1-1.6
		c0.3-0.4,0.5-0.7,0.6-0.9c0.1-0.1,0.4-0.2,0.7-0.1c0.2,0,0.4,0.2,0.5,0.4c0,0.1,0.1,0.3,0.1,0.4c0,0.3-0.3,1-0.8,2.2
		c-0.5,1.2-1.3,2.5-2.3,4.1s-2.3,3.2-3.8,5c-1.5,1.8-3.2,3.4-5.1,4.9c-1.9,1.5-4,2.8-6.3,3.9s-4.7,1.7-7.2,1.9
		c-3.9,0.2-7.2-0.2-10.1-1.2c-2.9-1.1-5.2-2.6-7-4.5c-1.8-2-3.1-4.3-3.9-6.9c-0.8-2.6-1-5.4-0.8-8.3c0.2-2.2,0.6-4.6,1.1-7.1
		c0.5-2.6,1.3-5.1,2.2-7.7c1-2.6,2.2-5.1,3.7-7.7c1.5-2.5,3.3-4.8,5.3-7c-1.6-1-3.2-1.9-4.7-2.8s-2.9-1.7-4.1-2.4
		c-1.4-0.8-2.8-1.6-4.1-2.3c1.8-1.3,3.5-2.1,5.1-2.4c1.6-0.3,3.2-0.2,4.7,0.2c1.5,0.4,3,1.1,4.3,2c1.4,1,2.7,2,4,3.1
		c0.6-0.4,1.2-0.8,1.9-1.2C673.5,137.2,674.2,136.9,674.9,136.5z M695.3,144.3c0.5-1.1,0.5-2.2,0.2-3.6c-0.4-1.3-1.2-2.4-2.5-3.3
		c-1.3-0.9-2.9-1.4-5-1.5c-2-0.1-4.5,0.5-7.3,1.9c-1.2,0.6-2.3,1.2-3.3,2c-1,0.8-2,1.6-2.9,2.5c0.8,0.8,1.6,1.6,2.3,2.3
		c0.7,0.7,1.5,1.3,2.2,1.9c1.6,1.2,3.3,2,5,2.3c1.7,0.3,3.3,0.3,4.8,0c1.5-0.3,2.8-0.9,4-1.7C694,146.3,694.9,145.4,695.3,144.3z"/>
	<path class="st2" d="M726.6,179.3c0.7-0.8,1.5-1.8,2.3-3c0.8-1.2,1.6-2.3,2.3-3.5c0.7-1.2,1.4-2.2,2-3.2c0.6-1,1-1.7,1.3-2.1
		c0.1-0.2,0.3-0.3,0.5-0.3c0.2,0,0.4,0,0.5,0.2c0.1,0.1,0.2,0.3,0.3,0.6c0,0.3,0,0.5-0.2,0.8c-0.3,0.6-0.8,1.3-1.4,2.3
		c-0.6,1-1.2,2-1.8,3c-0.6,1-1.2,2-1.8,2.9c-0.6,0.9-1,1.6-1.4,2c-1.3,1.8-2.8,3.1-4.4,3.7c-1.6,0.6-3.4,0.6-5.1,0
		c-1.3-0.5-2.2-1.3-2.7-2.5c-0.5-1.2-0.6-2.5-0.3-3.9c0.1-0.6,0.3-1.4,0.5-2.3c0.2-0.9,0.5-1.8,0.8-2.7c0.3-0.9,0.5-1.6,0.7-2.3
		c0.2-0.7,0.3-1.1,0.4-1.2c-0.4,0.6-0.9,1.4-1.5,2.3c-0.6,0.9-1.1,1.8-1.7,2.7c-0.6,0.9-1.1,1.7-1.5,2.4c-0.5,0.7-0.8,1.1-0.9,1.3
		c-1.3,1.7-2.4,3-3.3,3.9c-0.9,1-1.9,1.8-2.9,2.4c-0.4,0.2-1,0.4-1.9,0.6c-0.9,0.1-1.8,0.1-2.8,0c-1-0.1-1.9-0.5-2.7-0.9
		c-0.9-0.5-1.5-1.2-1.8-2.2c-0.4-1.1-0.5-2.3-0.4-3.6c0.2-1.3,0.4-2.6,0.9-3.9c0.4-1.3,0.9-2.5,1.4-3.5c0.5-1.1,1-1.9,1.3-2.5
		c1.8-3,4-5.6,6.7-7.9c2.7-2.3,5.8-3.8,9.5-4.6c3.3-0.7,6.4-0.7,9.2-0.1c0.4,0.1,0.8,0.3,1.2,0.5c0.4,0.2,0.7,0.4,0.9,0.7
		c0.2,0.3,0.4,0.5,0.3,0.8c0,0.3-0.3,0.5-0.7,0.7c-0.2,0.1-0.7,0.2-1.4,0.4c-0.7,0.2-1.6,0.4-2.5,0.6c-0.9,0.3-1.9,0.6-2.9,0.9
		c-1,0.3-1.9,0.7-2.6,1.2c-1.9,1.1-3.6,2.5-5.1,4s-2.7,3-3.7,4.5c-1,1.5-1.8,2.9-2.4,4.1c-0.6,1.3-1,2.2-1.1,2.7
		c-0.4,1.1-0.6,2-0.6,2.6c0,0.6,0.1,1.1,0.2,1.4c0.2,0.3,0.4,0.5,0.7,0.5c0.3,0,0.6,0,0.9-0.1c0.6-0.2,1.3-0.7,2.1-1.6
		c0.8-0.9,1.6-1.9,2.5-3c0.8-1.1,1.6-2.3,2.4-3.5c0.8-1.2,1.4-2.2,1.9-3.1c1.5-2.7,2.8-4.7,3.9-5.9c1.1-1.3,1.9-2,2.6-2.3
		c1.1-0.4,2.2-0.7,3.3-0.9c1.1-0.1,1.9-0.1,2.6,0.1c0.4,0.1,0.5,0.5,0.5,1.2c-0.1,0.7-0.3,1.6-0.6,2.6c-0.4,1.1-0.8,2.2-1.4,3.6
		c-0.6,1.3-1.1,2.7-1.7,4c-0.6,1.4-1.2,2.7-1.7,4.1c-0.6,1.3-1,2.6-1.3,3.6c-0.2,0.6-0.2,1.1,0,1.5c0.2,0.4,0.5,0.7,0.9,0.8
		c0.4,0.1,0.9,0.1,1.5-0.1S726,180,726.6,179.3z"/>
	<path class="st2" d="M735.6,152.9c1.9-0.2,3.5-0.4,4.8-0.4s2.4,0.2,3.2,0.5c0.8,0.3,1.4,0.8,1.8,1.4c0.4,0.6,0.6,1.4,0.7,2.3
		c0.1,1.3-0.1,3-0.5,4.9c-0.4,1.9-0.8,3.8-1.4,5.7s-1,3.7-1.5,5.3c-0.5,1.6-0.8,2.8-0.9,3.6c-0.3,1.6-0.2,2.7,0.3,3.2
		c0.5,0.5,1.5,0.4,2.9-0.3c2.2-1.1,4.1-2.5,5.5-4.3s2.6-3.6,3.5-5.3c1-2,1.8-4.2,2.3-6.4c-0.6-0.2-1.1-0.4-1.5-0.7
		c-0.4-0.2-0.8-0.5-1.1-0.9c-0.3-0.4-0.5-0.8-0.5-1.4c0-0.5,0.1-1.1,0.4-1.6c0.3-0.5,0.7-1,1.3-1.3c0.5-0.3,1.2-0.6,1.8-0.7
		c0.7-0.1,1.3,0,2,0.3c0.7,0.3,1.2,0.7,1.5,1.1c0.3,0.4,0.5,0.8,0.6,1.2c0.1,0.4,0.1,0.9,0.1,1.4c1,0.7,2,1,3,1c1,0,1.9-0.2,2.7-0.6
		c0.4-0.2,0.7-0.5,1-0.8c0.3-0.3,0.6-0.4,0.8-0.3c0.2,0.1,0.3,0.2,0.2,0.4c0,0.2-0.1,0.4-0.3,0.6c-0.2,0.2-0.3,0.4-0.5,0.6
		c-0.2,0.2-0.3,0.3-0.3,0.4c-0.7,0.7-1.4,1.2-2.3,1.4c-0.8,0.2-1.6,0.4-2.3,0.4c-0.9,0-1.7,0-2.6-0.2c-0.6,1.3-1.4,2.7-2.3,4.3
		c-0.9,1.6-2,3.2-3.1,4.8c-1.2,1.6-2.5,3.2-3.8,4.7c-1.4,1.5-2.8,2.8-4.3,3.9c-0.7,0.6-1.6,1-2.7,1.4c-1.1,0.4-2.2,0.6-3.4,0.8
		c-1.2,0.1-2.4,0.2-3.5,0.1c-1.2-0.1-2.2-0.4-3.1-0.8c-0.6-0.3-1-0.9-1.1-1.9c-0.1-1-0.1-2.2,0.1-3.7c0.2-1.4,0.4-3,0.8-4.7
		c0.4-1.7,0.8-3.3,1.2-4.9c0.4-1.6,0.9-3.1,1.2-4.5c0.4-1.4,0.7-2.5,0.8-3.3c0.3-1.3,0.4-2.3,0.2-3.2c-0.1-0.9-0.3-1.5-0.5-2.1
		C736.5,153.7,736.1,153.2,735.6,152.9z"/>
	<path class="st2" d="M788.5,179.3c0.7-0.8,1.5-1.8,2.3-3c0.8-1.2,1.6-2.3,2.3-3.5c0.7-1.2,1.4-2.2,2-3.2c0.6-1,1-1.7,1.3-2.1
		c0.1-0.2,0.3-0.3,0.5-0.3c0.2,0,0.4,0,0.5,0.2c0.1,0.1,0.2,0.3,0.3,0.6c0,0.3,0,0.5-0.2,0.8c-0.3,0.6-0.8,1.3-1.4,2.3
		c-0.6,1-1.2,2-1.8,3c-0.6,1-1.2,2-1.8,2.9c-0.6,0.9-1,1.6-1.4,2c-1.3,1.8-2.8,3.1-4.4,3.7c-1.6,0.6-3.4,0.6-5.1,0
		c-1.3-0.5-2.2-1.3-2.7-2.5c-0.5-1.2-0.6-2.5-0.3-3.9c0.1-0.6,0.3-1.4,0.5-2.3c0.2-0.9,0.5-1.8,0.8-2.7c0.3-0.9,0.5-1.6,0.7-2.3
		c0.2-0.7,0.3-1.1,0.4-1.2c-0.4,0.6-0.9,1.4-1.5,2.3c-0.6,0.9-1.1,1.8-1.7,2.7c-0.6,0.9-1.1,1.7-1.5,2.4c-0.5,0.7-0.8,1.1-0.9,1.3
		c-1.3,1.7-2.4,3-3.3,3.9c-0.9,1-1.9,1.8-2.9,2.4c-0.4,0.2-1,0.4-1.9,0.6c-0.9,0.1-1.8,0.1-2.8,0c-1-0.1-1.9-0.5-2.7-0.9
		c-0.9-0.5-1.5-1.2-1.8-2.2c-0.4-1.1-0.5-2.3-0.4-3.6c0.2-1.3,0.4-2.6,0.9-3.9c0.4-1.3,0.9-2.5,1.4-3.5c0.5-1.1,1-1.9,1.3-2.5
		c1.8-3,4-5.6,6.7-7.9c2.7-2.3,5.8-3.8,9.5-4.6c3.3-0.7,6.4-0.7,9.2-0.1c0.4,0.1,0.8,0.3,1.2,0.5c0.4,0.2,0.7,0.4,0.9,0.7
		c0.2,0.3,0.4,0.5,0.3,0.8c0,0.3-0.3,0.5-0.7,0.7c-0.2,0.1-0.7,0.2-1.4,0.4c-0.7,0.2-1.6,0.4-2.5,0.6c-0.9,0.3-1.9,0.6-2.9,0.9
		c-1,0.3-1.9,0.7-2.6,1.2c-1.9,1.1-3.6,2.5-5.1,4s-2.7,3-3.7,4.5c-1,1.5-1.8,2.9-2.4,4.1c-0.6,1.3-1,2.2-1.1,2.7
		c-0.4,1.1-0.6,2-0.6,2.6c0,0.6,0.1,1.1,0.2,1.4c0.2,0.3,0.4,0.5,0.7,0.5c0.3,0,0.6,0,0.9-0.1c0.6-0.2,1.3-0.7,2.1-1.6
		c0.8-0.9,1.6-1.9,2.5-3c0.8-1.1,1.6-2.3,2.4-3.5c0.8-1.2,1.4-2.2,1.9-3.1c1.5-2.7,2.8-4.7,3.9-5.9c1.1-1.3,1.9-2,2.6-2.3
		c1.1-0.4,2.2-0.7,3.3-0.9c1.1-0.1,1.9-0.1,2.6,0.1c0.4,0.1,0.5,0.5,0.5,1.2c-0.1,0.7-0.3,1.6-0.6,2.6c-0.4,1.1-0.8,2.2-1.4,3.6
		c-0.6,1.3-1.1,2.7-1.7,4c-0.6,1.4-1.2,2.7-1.7,4.1c-0.6,1.3-1,2.6-1.3,3.6c-0.2,0.6-0.2,1.1,0,1.5c0.2,0.4,0.5,0.7,0.9,0.8
		c0.4,0.1,0.9,0.1,1.5-0.1S787.9,180,788.5,179.3z"/>
	<path class="st2" d="M814.8,164.7c0.2,0.1,0.4,0.3,0.4,0.7c0,0.4-0.2,1-0.7,1.9c-0.1,0.2-0.3,0.7-0.7,1.5c-0.4,0.8-0.9,1.7-1.6,2.8
		c-0.7,1.1-1.5,2.3-2.4,3.5c-0.9,1.2-2,2.4-3.1,3.5c-1.2,1.1-2.5,2.1-3.9,2.9c-1.4,0.8-2.9,1.4-4.5,1.7c-0.9,0.1-1.7,0.1-2.6-0.1
		c-0.9-0.2-1.7-0.7-2.3-1.5c-0.7-0.8-1.1-2-1.4-3.7c-0.3-1.6-0.2-3.9,0.2-6.7c0.2-1.7,0.7-3.6,1.2-5.8c0.6-2.2,1.3-4.5,2.1-6.9
		c0.8-2.4,1.8-4.8,2.9-7.3c1.1-2.5,2.2-4.9,3.5-7.1c1.2-2.3,2.5-4.4,3.9-6.4c1.3-2,2.7-3.6,4.1-5c1.4-1.4,2.8-2.5,4.2-3.2
		c1.4-0.7,2.8-0.9,4.1-0.7c1.7,0.3,2.7,1.2,3.1,2.6c0.4,1.4,0.3,3.2-0.3,5.2c-0.6,2.1-1.5,4.3-2.9,6.8c-1.3,2.5-2.9,5-4.7,7.4
		c-1.8,2.5-3.8,4.8-5.9,7.1c-2.1,2.2-4.2,4.1-6.3,5.6c-0.3,1-0.6,1.9-0.9,2.7c-0.2,0.8-0.5,1.6-0.6,2.4c-0.2,0.8-0.3,1.7-0.5,2.7
		s-0.3,2.2-0.4,3.6c0,0.4-0.1,0.9-0.1,1.7c0,0.8,0.2,1.4,0.5,1.9c0.3,0.5,1,0.8,1.8,0.7c0.9,0,2.1-0.7,3.8-1.9
		c1.3-1,2.5-2.1,3.6-3.4s1.9-2.5,2.6-3.6c0.7-1.2,1.3-2.2,1.8-3c0.4-0.9,0.7-1.4,0.9-1.6c0.1-0.2,0.3-0.5,0.5-0.8
		C814.4,164.8,814.6,164.7,814.8,164.7z M817,132.2c-0.5,0.1-1.1,0.6-1.8,1.5c-0.7,0.9-1.5,2.1-2.3,3.5c-0.9,1.5-1.7,3.1-2.7,5
		c-0.9,1.9-1.9,3.9-2.8,6c-0.9,2.1-1.8,4.2-2.7,6.4c-0.9,2.2-1.7,4.2-2.5,6.2c0.5-0.4,1.3-1.2,2.4-2.3c1.1-1.1,2.2-2.3,3.4-3.6
		c1.2-1.4,2.4-2.8,3.5-4.3c1.1-1.5,2-2.9,2.7-4.2c2.6-5,4-8.7,4.3-11.1C818.8,133.1,818.3,132,817,132.2z"/>
	<path class="st2" d="M829.1,166.7c1.4-1.6,2.6-3.1,3.5-4.4c0.4-0.6,0.7-1.1,1-1.7c0.3-0.6,0.5-1.1,0.6-1.6c0.1-0.5,0.1-1,0-1.4
		c-0.1-0.4-0.4-0.7-0.8-1c-0.9-0.4-1.9-0.3-3.1,0.4c-1.2,0.7-2.4,1.8-3.6,3.1c-1.2,1.3-2.4,2.8-3.5,4.5c-1.1,1.7-2,3.3-2.8,4.8
		c-0.8,1.5-1.3,2.9-1.6,4.4s-0.3,2.8,0,3.9s0.9,1.9,1.7,2.5c0.9,0.6,2.1,0.7,3.6,0.4c1.5-0.3,3.2-1,5-2.1c1.8-1.1,3.6-2.3,5.3-3.8
		c1.7-1.5,3.4-3.1,4.9-4.8s2.7-3.3,3.6-4.9c0.1-0.1,0.2-0.2,0.3-0.3c0.2-0.1,0.4-0.1,0.5,0.2c0.2,0.3,0.2,0.6,0.1,0.8
		c-0.1,0.2-0.3,0.5-0.6,1c-0.1,0.2-0.4,0.6-0.9,1.4c-0.5,0.8-1.3,1.8-2.2,2.9c-0.9,1.1-2,2.4-3.3,3.7c-1.2,1.3-2.6,2.6-4.1,3.7
		c-1.5,1.2-3.1,2.2-4.8,3.1c-1.7,0.9-3.5,1.5-5.3,1.8c-2.8,0.4-5,0.1-6.7-1c-1.7-1.1-2.8-2.6-3.5-4.6s-0.8-4.3-0.5-6.9
		c0.3-2.6,1.2-5.2,2.5-7.8c1.3-2.7,3-4.9,5.1-6.6c2.1-1.7,4.2-2.9,6.4-3.6c2.2-0.7,4.4-1,6.4-0.7c2.1,0.2,3.8,0.9,5.2,2
		c1.1,0.9,1.8,1.9,2,3c0.3,1.2,0.2,2.4-0.1,3.5c-0.3,1.2-0.9,2.3-1.7,3.3s-1.7,1.8-2.7,2.4c-1.5,0.9-2.9,1.3-4.1,1.3
		C830.1,167.7,829.4,167.4,829.1,166.7z"/>
	<path class="st2" d="M868.3,179.3c0.7-0.8,1.5-1.8,2.3-3c0.8-1.2,1.6-2.3,2.3-3.5c0.7-1.2,1.4-2.2,2-3.2c0.6-1,1-1.7,1.3-2.1
		c0.1-0.2,0.3-0.3,0.5-0.3c0.2,0,0.4,0,0.5,0.2c0.1,0.1,0.2,0.3,0.3,0.6c0,0.3,0,0.5-0.2,0.8c-0.3,0.6-0.8,1.3-1.4,2.3
		c-0.6,1-1.2,2-1.8,3c-0.6,1-1.2,2-1.8,2.9c-0.6,0.9-1,1.6-1.4,2c-1.3,1.8-2.8,3.1-4.4,3.7c-1.6,0.6-3.4,0.6-5.1,0
		c-1.3-0.5-2.2-1.3-2.7-2.5c-0.5-1.2-0.6-2.5-0.3-3.9c0.1-0.6,0.3-1.4,0.5-2.3c0.2-0.9,0.5-1.8,0.8-2.7c0.3-0.9,0.5-1.6,0.7-2.3
		c0.2-0.7,0.3-1.1,0.4-1.2c-0.4,0.6-0.9,1.4-1.5,2.3c-0.6,0.9-1.1,1.8-1.7,2.7c-0.6,0.9-1.1,1.7-1.5,2.4c-0.5,0.7-0.8,1.1-0.9,1.3
		c-1.3,1.7-2.4,3-3.3,3.9c-0.9,1-1.9,1.8-2.9,2.4c-0.4,0.2-1,0.4-1.9,0.6c-0.9,0.1-1.8,0.1-2.8,0c-1-0.1-1.9-0.5-2.7-0.9
		c-0.9-0.5-1.5-1.2-1.8-2.2c-0.4-1.1-0.5-2.3-0.4-3.6c0.2-1.3,0.4-2.6,0.9-3.9c0.4-1.3,0.9-2.5,1.4-3.5c0.5-1.1,1-1.9,1.3-2.5
		c1.8-3,4-5.6,6.7-7.9c2.7-2.3,5.8-3.8,9.5-4.6c3.3-0.7,6.4-0.7,9.2-0.1c0.4,0.1,0.8,0.3,1.2,0.5c0.4,0.2,0.7,0.4,0.9,0.7
		c0.2,0.3,0.4,0.5,0.3,0.8c0,0.3-0.3,0.5-0.7,0.7c-0.2,0.1-0.7,0.2-1.4,0.4c-0.7,0.2-1.6,0.4-2.5,0.6c-0.9,0.3-1.9,0.6-2.9,0.9
		c-1,0.3-1.9,0.7-2.6,1.2c-1.9,1.1-3.6,2.5-5.1,4s-2.7,3-3.7,4.5c-1,1.5-1.8,2.9-2.4,4.1c-0.6,1.3-1,2.2-1.1,2.7
		c-0.4,1.1-0.6,2-0.6,2.6c0,0.6,0.1,1.1,0.2,1.4c0.2,0.3,0.4,0.5,0.7,0.5c0.3,0,0.6,0,0.9-0.1c0.6-0.2,1.3-0.7,2.1-1.6
		c0.8-0.9,1.6-1.9,2.5-3c0.8-1.1,1.6-2.3,2.4-3.5c0.8-1.2,1.4-2.2,1.9-3.1c1.5-2.7,2.8-4.7,3.9-5.9c1.1-1.3,1.9-2,2.6-2.3
		c1.1-0.4,2.2-0.7,3.3-0.9c1.1-0.1,1.9-0.1,2.6,0.1c0.4,0.1,0.5,0.5,0.5,1.2c-0.1,0.7-0.3,1.6-0.6,2.6c-0.4,1.1-0.8,2.2-1.4,3.6
		c-0.6,1.3-1.1,2.7-1.7,4c-0.6,1.4-1.2,2.7-1.7,4.1c-0.6,1.3-1,2.6-1.3,3.6c-0.2,0.6-0.2,1.1,0,1.5c0.2,0.4,0.5,0.7,0.9,0.8
		c0.4,0.1,0.9,0.1,1.5-0.1S867.7,180,868.3,179.3z"/>
	<path class="st2" d="M878.6,152.2c0.9-0.5,1.8-0.8,2.7-1c0.7-0.1,1.5-0.1,2.2,0.2s1.3,0.9,1.7,1.9c0.4,1.1,0.5,2.3,0.4,3.6
		c-0.2,1.4-0.4,2.7-0.7,3.9c-0.4,1.5-0.9,2.9-1.6,4.4c1.3-2.1,2.6-4.1,4.1-5.9c0.6-0.8,1.3-1.5,2-2.3c0.7-0.8,1.5-1.5,2.3-2.2
		c0.8-0.7,1.6-1.3,2.4-1.8c0.8-0.5,1.7-0.9,2.6-1.2c1.7-0.5,3.2-0.7,4.4-0.5c1.2,0.2,2.2,0.6,2.9,1.2c0.7,0.6,1.2,1.3,1.5,2.1
		c0.3,0.8,0.4,1.5,0.3,2.1c-0.1,0.7-0.3,1.7-0.7,2.8s-0.9,2.4-1.5,3.8c-0.6,1.4-1.2,2.7-1.9,4.2c-0.6,1.4-1.3,2.8-1.9,4.1
		c-0.6,1.3-1.1,2.5-1.6,3.6s-0.8,1.9-0.9,2.4c-0.2,0.9-0.3,1.5-0.1,1.9c0.2,0.4,0.5,0.6,0.9,0.6c0.4,0,0.9-0.1,1.4-0.4
		c0.5-0.3,1-0.6,1.5-0.9c0.4-0.3,0.9-0.9,1.5-1.6c0.6-0.8,1.3-1.6,1.9-2.5c0.7-0.9,1.4-1.9,2.1-2.8c0.7-1,1.3-1.9,1.9-2.7
		c0.6-0.8,1-1.5,1.4-2.1c0.4-0.5,0.6-0.8,0.6-0.9c0.1-0.1,0.2-0.3,0.5-0.5c0.2-0.2,0.5-0.2,0.8,0c0.2,0.2,0.3,0.4,0.1,0.9l-0.2,0.6
		c-1.5,2.4-3,4.5-4.3,6.4c-0.6,0.9-1.2,1.7-1.8,2.5c-0.6,0.8-1.2,1.6-1.7,2.3s-1,1.3-1.5,1.9c-0.4,0.5-0.8,0.9-1.1,1.2
		c-0.8,0.6-1.8,1.1-2.9,1.4c-1.1,0.3-2.2,0.4-3.3,0.3c-1.1-0.1-2.1-0.4-3-0.9c-0.9-0.5-1.6-1.2-2.1-2.2c-0.3-0.6-0.4-1.6-0.3-2.7
		c0.1-1.2,0.4-2.5,0.8-3.9c0.4-1.4,0.9-2.9,1.4-4.4s1.1-2.9,1.6-4.2c0.5-1.3,1-2.4,1.5-3.3c0.4-0.9,0.7-1.5,0.9-1.7
		c0.3-0.6,0.5-1.2,0.6-1.8c0.1-0.6-0.1-1.1-0.4-1.5s-0.8-0.5-1.5-0.4c-0.7,0.1-1.6,0.6-2.7,1.4c-0.8,0.6-1.6,1.4-2.5,2.4
		c-0.9,1-1.8,2.2-2.7,3.4c-0.9,1.3-1.8,2.6-2.7,4c-0.9,1.4-1.7,2.7-2.5,4s-1.4,2.5-2,3.5c-0.6,1.1-1,1.9-1.3,2.5
		c-0.4,0.9-0.7,1.8-0.9,2.5c-0.1,0.7-0.2,1.3-0.2,1.7c0,0.5,0.1,1,0.2,1.4c-1.3-0.3-2.4-0.7-3.2-1.2c-0.8-0.5-1.5-1.2-1.9-1.8
		c-0.5-0.7-0.8-1.3-1-2c-0.2-0.7-0.3-1.3-0.4-1.8c0-0.3,0.1-0.9,0.3-1.7c0.3-0.8,0.6-1.7,1-2.7c0.4-1,0.9-2.1,1.4-3.3
		c0.5-1.2,1-2.4,1.5-3.5s0.9-2.2,1.3-3.3c0.4-1,0.7-1.9,0.9-2.6c0.5-2.1,0.9-3.8,1.1-5C878.5,153.3,878.6,152.7,878.6,152.2z"/>
	<path class="st2" d="M923.9,154.5c-0.7,1.5-1.5,3.1-2.3,4.8c-0.8,1.7-1.6,3.5-2.3,5.2c-0.8,1.8-1.5,3.5-2.2,5.1
		c-0.7,1.6-1.3,3.1-1.8,4.5c-0.5,1.3-0.9,2.5-1.2,3.4c-0.3,0.9-0.5,1.5-0.5,1.7c0,0.3,0,0.6,0,0.9s0.1,0.5,0.2,0.7s0.3,0.3,0.7,0.4
		c0.3,0.1,0.8,0.1,1.5,0c1.8-0.2,3.5-1,5-2.1c1.5-1.2,3-2.6,4.3-4.3c1.4-1.7,2.7-3.6,4-5.7c1.3-2.1,2.6-4.2,4-6.2
		c0.2-0.4,0.6-0.5,1-0.3c0.4,0.2,0.5,0.5,0.2,1c-0.1,0.2-0.3,0.6-0.7,1.5c-0.4,0.8-0.9,1.7-1.6,2.6c-1.4,2.4-2.8,4.4-4,6.1
		c-1.3,1.7-2.5,3.2-3.7,4.4s-2.4,2.2-3.5,2.9c-1.1,0.7-2.2,1.3-3.3,1.6c-0.8,0.2-1.7,0.4-2.7,0.5c-1,0.1-1.9,0.1-2.8,0
		c-0.9-0.1-1.7-0.3-2.4-0.6c-0.7-0.3-1.2-0.6-1.5-1.1c-0.5-0.6-0.9-1.3-1.1-2c-0.2-0.7-0.3-1.5-0.2-2.4c0.1-0.9,0.3-2.1,0.7-3.4
		c0.4-1.3,1-3,1.8-5c0.1-0.3,0.4-0.9,0.8-1.8c0.4-0.9,0.8-1.8,1.3-2.9c0.5-1.1,1-2.2,1.5-3.4c0.5-1.2,1-2.3,1.5-3.3
		c0.5-1,0.8-1.8,1.1-2.5c0.3-0.6,0.4-1,0.5-1c-0.6-0.1-1.3-0.3-2.2-0.5c-0.9-0.3-1.8-0.6-2.8-1c-1-0.4-1.9-0.9-2.9-1.5
		c-1-0.6-1.8-1.3-2.4-2.2c0.2-0.3,0.4-0.3,0.8-0.2c0.4,0.2,1,0.4,1.9,0.7c0.9,0.3,2,0.6,3.5,0.9c1.5,0.3,3.3,0.4,5.6,0.4
		c0.2-0.4,0.5-0.9,0.9-1.6c0.3-0.7,0.7-1.5,0.9-2.2c0.3-0.8,0.5-1.6,0.7-2.3c0.2-0.8,0.2-1.4,0.2-1.9c0.6-0.2,1.3-0.2,1.9-0.2
		c0.7,0.1,1.3,0.2,1.9,0.4c0.6,0.2,1.1,0.5,1.5,0.9c0.4,0.4,0.7,0.9,0.9,1.5c0.1,0.4,0.1,0.7,0.2,1c0,0.3,0,0.7,0,1
		c-0.1,0.4-0.2,0.8-0.4,1.3c-0.2,0.5-0.4,1.1-0.8,1.9c2.1-0.3,3.8-0.6,5.1-1.1s2.3-0.8,3-1.1c0.7-0.3,1.2-0.5,1.5-0.5
		c0.3-0.1,0.5,0.1,0.6,0.5c0.1,1.3,0,2.4-0.2,3.2c-0.2,0.8-0.8,1.5-1.6,1.9c-0.9,0.5-2.1,0.8-3.7,1.1
		C928.6,154.4,926.5,154.5,923.9,154.5z"/>
	<path class="st2" d="M945,154c-0.5,0.6-1.1,1.5-1.9,2.8c-0.8,1.3-1.6,2.7-2.5,4.3c-0.9,1.6-1.7,3.3-2.6,5.1
		c-0.8,1.8-1.5,3.5-2.1,5.1c-0.6,1.6-1,3.1-1.2,4.3s-0.2,2.2,0.2,2.8c0.2,0.3,0.4,0.4,0.9,0.2c0.4-0.2,0.9-0.5,1.4-0.9
		c0.5-0.4,1.1-1,1.8-1.7c0.6-0.7,1.3-1.4,1.9-2.2c1.5-1.8,3.2-3.9,5-6.4c0.1-0.1,0.2-0.2,0.4-0.3c0.2-0.2,0.5-0.2,0.7-0.2
		c0.2,0,0.2,0.2,0.2,0.4c0,0.1,0,0.2-0.1,0.2c-0.5,1.1-1.2,2.2-2,3.4s-1.7,2.4-2.6,3.6s-2,2.3-3,3.4c-1.1,1.1-2.1,2.1-3.2,2.9
		c-1.1,0.8-2.1,1.5-3,2c-1,0.5-1.8,0.8-2.5,0.8c-1.1,0-2-0.2-2.6-0.5s-1.2-0.7-1.6-1.2c-0.4-0.5-0.6-1-0.8-1.6
		c-0.1-0.6-0.2-1.1-0.3-1.7c0-0.4,0.1-1.1,0.3-2.1s0.6-2.3,1-3.7c0.4-1.4,1-3,1.5-4.6c0.6-1.6,1.2-3.2,1.9-4.7
		c0.7-1.5,1.3-2.9,2-4.1c0.7-1.2,1.4-2.2,2-2.8c0.9-0.9,2-1.6,3.3-2c1.3-0.4,2.4-0.6,3.5-0.8C942.3,153.8,943.6,153.8,945,154z
		 M947.1,148.3c-0.4,0.3-1.1,0.5-2,0.7c-0.9,0.2-1.9,0.3-2.9,0.4c-1,0.1-1.9,0.1-2.7,0.1s-1.3,0-1.5-0.1c-0.4-0.1-0.3-0.3,0.2-0.8
		c0.5-0.4,1.2-1.2,2-2.2c0.4-0.5,1.2-0.9,2.4-1.4c1.1-0.4,2.3-0.8,3.4-1c1.2-0.3,2.2-0.4,3.1-0.5c0.9-0.1,1.3,0,1.3,0.1
		c0,0.2-0.2,0.5-0.5,1c-0.3,0.5-0.7,1-1.2,1.6C948.3,146.8,947.8,147.5,947.1,148.3z"/>
</g>
<g>
</g>
<g>
</g>
<g>
</g>
<g>
</g>
<g>
</g>
<g>
</g>
</svg>
